<mxfile host="app.diagrams.net" modified="2023-07-04T12:08:15.597Z" agent="Mozilla/5.0 (X11; Linux x86_64) AppleWebKit/537.36 (KHTML, like Gecko) Chrome/114.0.0.0 Safari/537.36 Edg/114.0.1823.51" etag="SXnJ_d4gO_6qWZusJGGt" version="21.5.2" type="device">
  <diagram name="Page-1" id="_bH2DKaN5ft4xbLNmIXA">
    <mxGraphModel dx="1195" dy="701" grid="1" gridSize="10" guides="1" tooltips="1" connect="1" arrows="1" fold="1" page="1" pageScale="1" pageWidth="850" pageHeight="1100" math="0" shadow="0">
      <root>
        <mxCell id="0" />
        <mxCell id="KdqZW1nxa3IcIuYSCLVA-135" parent="0" />
        <mxCell id="KdqZW1nxa3IcIuYSCLVA-362" value="" style="rounded=0;whiteSpace=wrap;html=1;fillColor=#E8E8E8;strokeColor=#828282;container=1;imageAspect=1;recursiveResize=0;fontFamily=sans-serif;" parent="KdqZW1nxa3IcIuYSCLVA-135" vertex="1">
          <mxGeometry x="700" y="800" width="140" height="130" as="geometry" />
        </mxCell>
        <mxCell id="KdqZW1nxa3IcIuYSCLVA-357" value="Logical Volume" style="rounded=0;whiteSpace=wrap;html=1;align=left;strokeColor=none;fillColor=none;fontFamily=sans-serif;" parent="KdqZW1nxa3IcIuYSCLVA-362" vertex="1">
          <mxGeometry x="40" y="100" width="100" height="20" as="geometry" />
        </mxCell>
        <mxCell id="KdqZW1nxa3IcIuYSCLVA-356" value="LV" style="rounded=0;whiteSpace=wrap;html=1;fontSize=11;fillColor=#dae8fc;strokeColor=#6c8ebf;fontFamily=sans-serif;" parent="KdqZW1nxa3IcIuYSCLVA-362" vertex="1">
          <mxGeometry x="10" y="100" width="20" height="20" as="geometry" />
        </mxCell>
        <mxCell id="KdqZW1nxa3IcIuYSCLVA-355" value="Encrypted" style="rounded=0;whiteSpace=wrap;html=1;align=left;strokeColor=none;fillColor=none;fontFamily=sans-serif;" parent="KdqZW1nxa3IcIuYSCLVA-362" vertex="1">
          <mxGeometry x="40" y="70" width="50" height="20" as="geometry" />
        </mxCell>
        <mxCell id="KdqZW1nxa3IcIuYSCLVA-354" value="" style="sketch=0;aspect=fixed;pointerEvents=1;shadow=0;dashed=0;html=1;strokeColor=#d6b656;labelPosition=center;verticalLabelPosition=bottom;verticalAlign=top;align=center;fillColor=#fff2cc;shape=mxgraph.mscae.enterprise.lock;fontFamily=sans-serif;" parent="KdqZW1nxa3IcIuYSCLVA-362" vertex="1">
          <mxGeometry x="12.4" y="70" width="15.6" height="20" as="geometry" />
        </mxCell>
        <mxCell id="KdqZW1nxa3IcIuYSCLVA-349" value="Linux" style="rounded=0;whiteSpace=wrap;html=1;align=left;strokeColor=none;fillColor=none;fontFamily=sans-serif;" parent="KdqZW1nxa3IcIuYSCLVA-362" vertex="1">
          <mxGeometry x="40" y="40" width="50" height="20" as="geometry" />
        </mxCell>
        <mxCell id="KdqZW1nxa3IcIuYSCLVA-348" value="" style="rounded=0;whiteSpace=wrap;html=1;fontSize=7;fillColor=#dae8fc;strokeColor=#6c8ebf;fontFamily=sans-serif;" parent="KdqZW1nxa3IcIuYSCLVA-362" vertex="1">
          <mxGeometry x="10" y="40" width="20" height="20" as="geometry" />
        </mxCell>
        <mxCell id="KdqZW1nxa3IcIuYSCLVA-351" value="Windows" style="rounded=0;whiteSpace=wrap;html=1;align=left;strokeColor=none;fillColor=none;fontFamily=sans-serif;" parent="KdqZW1nxa3IcIuYSCLVA-362" vertex="1">
          <mxGeometry x="36.48000000000002" y="10" width="50" height="20" as="geometry" />
        </mxCell>
        <mxCell id="KdqZW1nxa3IcIuYSCLVA-350" value="" style="rounded=0;whiteSpace=wrap;html=1;fontSize=7;fillColor=#d5e8d4;strokeColor=#82b366;fontFamily=sans-serif;" parent="KdqZW1nxa3IcIuYSCLVA-362" vertex="1">
          <mxGeometry x="10" y="10" width="20" height="20" as="geometry" />
        </mxCell>
        <mxCell id="KdqZW1nxa3IcIuYSCLVA-307" value="Table" style="shape=table;startSize=0;container=1;collapsible=0;childLayout=tableLayout;rounded=0;fontSize=12;noLabel=1;fontFamily=sans-serif;" parent="KdqZW1nxa3IcIuYSCLVA-135" vertex="1">
          <mxGeometry x="10" y="680" width="830" height="110" as="geometry" />
        </mxCell>
        <mxCell id="KdqZW1nxa3IcIuYSCLVA-308" value="" style="shape=tableRow;horizontal=0;startSize=0;swimlaneHead=0;swimlaneBody=0;strokeColor=inherit;top=0;left=0;bottom=0;right=0;collapsible=0;dropTarget=0;fillColor=none;points=[[0,0.5],[1,0.5]];portConstraint=eastwest;fontSize=12;fontFamily=sans-serif;" parent="KdqZW1nxa3IcIuYSCLVA-307" vertex="1">
          <mxGeometry width="830" height="55" as="geometry" />
        </mxCell>
        <mxCell id="KdqZW1nxa3IcIuYSCLVA-309" value="EFI&lt;br style=&quot;border-color: var(--border-color); font-size: 12px;&quot;&gt;&lt;font style=&quot;border-color: var(--border-color);&quot;&gt;&lt;span style=&quot;font-size: 8px;&quot;&gt;FAT32&lt;/span&gt;&lt;br&gt;&lt;font style=&quot;font-size: 7px;&quot;&gt;100 MiB&lt;/font&gt;&lt;/font&gt;" style="shape=partialRectangle;html=1;whiteSpace=wrap;connectable=0;strokeColor=#688F51;overflow=hidden;fillColor=#d5e8d4;top=1;left=1;bottom=1;right=1;pointerEvents=1;rowspan=3;fontSize=12;strokeWidth=2;fontFamily=sans-serif;" parent="KdqZW1nxa3IcIuYSCLVA-308" vertex="1">
          <mxGeometry width="34" height="110" as="geometry">
            <mxRectangle width="34" height="55" as="alternateBounds" />
          </mxGeometry>
        </mxCell>
        <mxCell id="KdqZW1nxa3IcIuYSCLVA-310" value="&lt;font style=&quot;font-size: 11px;&quot;&gt;MSR&lt;/font&gt;&lt;br style=&quot;border-color: var(--border-color); font-size: 12px;&quot;&gt;&lt;font style=&quot;border-color: var(--border-color); font-size: 8px;&quot;&gt;16 MiB&lt;/font&gt;" style="shape=partialRectangle;html=1;whiteSpace=wrap;connectable=0;strokeColor=#688F51;overflow=hidden;fillColor=#d5e8d4;top=1;left=1;bottom=1;right=1;pointerEvents=1;rowspan=3;fontSize=12;strokeWidth=2;fontFamily=sans-serif;" parent="KdqZW1nxa3IcIuYSCLVA-308" vertex="1">
          <mxGeometry x="34" width="33" height="110" as="geometry">
            <mxRectangle width="33" height="55" as="alternateBounds" />
          </mxGeometry>
        </mxCell>
        <mxCell id="KdqZW1nxa3IcIuYSCLVA-311" value="Windows&lt;br style=&quot;border-color: var(--border-color); font-size: 12px;&quot;&gt;&lt;font style=&quot;border-color: var(--border-color); font-size: 8px;&quot;&gt;NTFS (BitLocker) - 128 GiB&lt;/font&gt;" style="shape=partialRectangle;html=1;whiteSpace=wrap;connectable=0;strokeColor=#688F51;overflow=hidden;fillColor=#d5e8d4;top=1;left=1;bottom=1;right=1;pointerEvents=1;rowspan=3;fontSize=12;strokeWidth=2;container=1;fontFamily=sans-serif;" parent="KdqZW1nxa3IcIuYSCLVA-308" vertex="1">
          <mxGeometry x="67" width="163" height="110" as="geometry">
            <mxRectangle width="163" height="55" as="alternateBounds" />
          </mxGeometry>
        </mxCell>
        <mxCell id="KdqZW1nxa3IcIuYSCLVA-338" value="" style="sketch=0;aspect=fixed;pointerEvents=1;shadow=0;dashed=0;html=1;strokeColor=#d6b656;labelPosition=center;verticalLabelPosition=bottom;verticalAlign=top;align=center;fillColor=#fff2cc;shape=mxgraph.mscae.enterprise.lock;fontFamily=sans-serif;" parent="KdqZW1nxa3IcIuYSCLVA-311" vertex="1">
          <mxGeometry x="4" y="90" width="12.48" height="16" as="geometry" />
        </mxCell>
        <mxCell id="As9Zzw6g2zfpyAjeWfE_-0" value="BitLocker" style="rounded=0;whiteSpace=wrap;html=1;align=left;strokeColor=none;fillColor=none;fontColor=#CCAD52;fontSize=10;fontFamily=sans-serif;" vertex="1" parent="KdqZW1nxa3IcIuYSCLVA-311">
          <mxGeometry x="18.480000000000004" y="96" width="50" height="10" as="geometry" />
        </mxCell>
        <mxCell id="KdqZW1nxa3IcIuYSCLVA-312" value="Re&lt;br style=&quot;border-color: var(--border-color); font-size: 12px;&quot;&gt;&lt;font style=&quot;border-color: var(--border-color); font-size: 8px;&quot;&gt;NTFS&lt;br&gt;700 MB&lt;/font&gt;" style="shape=partialRectangle;html=1;whiteSpace=wrap;connectable=0;strokeColor=#688F51;overflow=hidden;fillColor=#d5e8d4;top=1;left=1;bottom=1;right=1;pointerEvents=1;rowspan=3;fontSize=12;strokeWidth=2;fontFamily=sans-serif;" parent="KdqZW1nxa3IcIuYSCLVA-308" vertex="1">
          <mxGeometry x="230" width="40" height="110" as="geometry">
            <mxRectangle width="40" height="55" as="alternateBounds" />
          </mxGeometry>
        </mxCell>
        <mxCell id="KdqZW1nxa3IcIuYSCLVA-313" value="EFI&lt;br&gt;&lt;font style=&quot;&quot;&gt;&lt;span style=&quot;font-size: 8px;&quot;&gt;FAT32&lt;/span&gt;&lt;br&gt;&lt;font style=&quot;font-size: 7px;&quot;&gt;100 MiB&lt;/font&gt;&lt;/font&gt;" style="shape=partialRectangle;html=1;whiteSpace=wrap;connectable=0;strokeColor=#6c8ebf;overflow=hidden;fillColor=#dae8fc;top=1;left=1;bottom=1;right=1;pointerEvents=1;rowspan=3;fontSize=12;strokeWidth=2;fontFamily=sans-serif;" parent="KdqZW1nxa3IcIuYSCLVA-308" vertex="1">
          <mxGeometry x="270" width="37" height="110" as="geometry">
            <mxRectangle width="37" height="55" as="alternateBounds" />
          </mxGeometry>
        </mxCell>
        <mxCell id="KdqZW1nxa3IcIuYSCLVA-314" value="Boot&lt;br&gt;&lt;font style=&quot;font-size: 8px;&quot;&gt;Ext4&lt;br&gt;500 MiB&lt;/font&gt;" style="shape=partialRectangle;html=1;whiteSpace=wrap;connectable=0;strokeColor=#6c8ebf;overflow=hidden;fillColor=#dae8fc;top=1;left=1;bottom=1;right=1;pointerEvents=1;rowspan=3;fontSize=12;strokeWidth=2;fontFamily=sans-serif;" parent="KdqZW1nxa3IcIuYSCLVA-308" vertex="1">
          <mxGeometry x="307" width="46" height="110" as="geometry">
            <mxRectangle width="46" height="55" as="alternateBounds" />
          </mxGeometry>
        </mxCell>
        <mxCell id="KdqZW1nxa3IcIuYSCLVA-315" value="&lt;font style=&quot;font-size: 11px;&quot;&gt;Swap&lt;/font&gt;&lt;br&gt;&lt;font style=&quot;font-size: 8px;&quot;&gt;8GiB&lt;/font&gt;" style="shape=partialRectangle;html=1;whiteSpace=wrap;connectable=0;strokeColor=#6c8ebf;overflow=hidden;fillColor=#dae8fc;top=1;left=1;bottom=1;right=1;pointerEvents=1;colspan=1;fontSize=12;strokeWidth=2;container=1;fontFamily=sans-serif;" parent="KdqZW1nxa3IcIuYSCLVA-308" vertex="1">
          <mxGeometry x="353" width="37" height="55" as="geometry">
            <mxRectangle width="37" height="55" as="alternateBounds" />
          </mxGeometry>
        </mxCell>
        <mxCell id="KdqZW1nxa3IcIuYSCLVA-341" value="LV" style="rounded=0;whiteSpace=wrap;html=1;fontSize=7;fillColor=#dae8fc;strokeColor=#6c8ebf;fontFamily=sans-serif;" parent="KdqZW1nxa3IcIuYSCLVA-315" vertex="1">
          <mxGeometry y="44" width="11" height="11" as="geometry" />
        </mxCell>
        <mxCell id="KdqZW1nxa3IcIuYSCLVA-316" value="&lt;font face=&quot;monospace&quot;&gt;/&lt;/font&gt;&lt;br&gt;&lt;font style=&quot;font-size: 8px;&quot;&gt;Ext4 - 100GiB&lt;/font&gt;" style="shape=partialRectangle;html=1;whiteSpace=wrap;connectable=0;strokeColor=#6c8ebf;overflow=hidden;fillColor=#dae8fc;top=1;left=1;bottom=1;right=1;pointerEvents=1;strokeWidth=2;container=1;fontFamily=sans-serif;" parent="KdqZW1nxa3IcIuYSCLVA-308" vertex="1">
          <mxGeometry x="390" width="110" height="55" as="geometry">
            <mxRectangle width="110" height="55" as="alternateBounds" />
          </mxGeometry>
        </mxCell>
        <mxCell id="KdqZW1nxa3IcIuYSCLVA-346" value="LV" style="rounded=0;whiteSpace=wrap;html=1;fontSize=7;fillColor=#dae8fc;strokeColor=#6c8ebf;fontFamily=sans-serif;" parent="KdqZW1nxa3IcIuYSCLVA-316" vertex="1">
          <mxGeometry y="44" width="11" height="11" as="geometry" />
        </mxCell>
        <mxCell id="KdqZW1nxa3IcIuYSCLVA-317" value="&lt;font face=&quot;monospace&quot;&gt;/home&lt;/font&gt;&lt;br&gt;&lt;font style=&quot;font-size: 8px;&quot;&gt;Ext4 - 248GiB&lt;/font&gt;" style="shape=partialRectangle;html=1;whiteSpace=wrap;connectable=0;strokeColor=#6c8ebf;overflow=hidden;fillColor=#dae8fc;top=1;left=1;bottom=1;right=1;pointerEvents=1;strokeWidth=2;container=1;fontFamily=sans-serif;" parent="KdqZW1nxa3IcIuYSCLVA-308" vertex="1">
          <mxGeometry x="500" width="330" height="55" as="geometry">
            <mxRectangle width="330" height="55" as="alternateBounds" />
          </mxGeometry>
        </mxCell>
        <mxCell id="KdqZW1nxa3IcIuYSCLVA-347" value="LV" style="rounded=0;whiteSpace=wrap;html=1;fontSize=7;fillColor=#dae8fc;strokeColor=#6c8ebf;fontFamily=sans-serif;" parent="KdqZW1nxa3IcIuYSCLVA-317" vertex="1">
          <mxGeometry y="44" width="11" height="11" as="geometry" />
        </mxCell>
        <mxCell id="KdqZW1nxa3IcIuYSCLVA-318" value="" style="shape=tableRow;horizontal=0;startSize=0;swimlaneHead=0;swimlaneBody=0;strokeColor=inherit;top=0;left=0;bottom=0;right=0;collapsible=0;dropTarget=0;fillColor=none;points=[[0,0.5],[1,0.5]];portConstraint=eastwest;fontSize=12;strokeWidth=2;fontFamily=sans-serif;" parent="KdqZW1nxa3IcIuYSCLVA-307" vertex="1">
          <mxGeometry y="55" width="830" height="28" as="geometry" />
        </mxCell>
        <mxCell id="KdqZW1nxa3IcIuYSCLVA-319" value="" style="shape=partialRectangle;html=1;whiteSpace=wrap;connectable=0;strokeColor=inherit;overflow=hidden;fillColor=none;top=0;left=0;bottom=0;right=0;pointerEvents=1;" parent="KdqZW1nxa3IcIuYSCLVA-318" vertex="1" visible="0">
          <mxGeometry width="34" height="28" as="geometry">
            <mxRectangle width="34" height="28" as="alternateBounds" />
          </mxGeometry>
        </mxCell>
        <mxCell id="KdqZW1nxa3IcIuYSCLVA-320" value="" style="shape=partialRectangle;html=1;whiteSpace=wrap;connectable=0;strokeColor=inherit;overflow=hidden;fillColor=none;top=0;left=0;bottom=0;right=0;pointerEvents=1;" parent="KdqZW1nxa3IcIuYSCLVA-318" vertex="1" visible="0">
          <mxGeometry x="34" width="33" height="28" as="geometry">
            <mxRectangle width="33" height="28" as="alternateBounds" />
          </mxGeometry>
        </mxCell>
        <mxCell id="KdqZW1nxa3IcIuYSCLVA-321" value="" style="shape=partialRectangle;html=1;whiteSpace=wrap;connectable=0;strokeColor=inherit;overflow=hidden;fillColor=none;top=0;left=0;bottom=0;right=0;pointerEvents=1;" parent="KdqZW1nxa3IcIuYSCLVA-318" vertex="1" visible="0">
          <mxGeometry x="67" width="163" height="28" as="geometry">
            <mxRectangle width="163" height="28" as="alternateBounds" />
          </mxGeometry>
        </mxCell>
        <mxCell id="KdqZW1nxa3IcIuYSCLVA-322" value="" style="shape=partialRectangle;html=1;whiteSpace=wrap;connectable=0;strokeColor=inherit;overflow=hidden;fillColor=none;top=0;left=0;bottom=0;right=0;pointerEvents=1;" parent="KdqZW1nxa3IcIuYSCLVA-318" vertex="1" visible="0">
          <mxGeometry x="230" width="40" height="28" as="geometry">
            <mxRectangle width="40" height="28" as="alternateBounds" />
          </mxGeometry>
        </mxCell>
        <mxCell id="KdqZW1nxa3IcIuYSCLVA-323" value="" style="shape=partialRectangle;html=1;whiteSpace=wrap;connectable=0;strokeColor=#6c8ebf;overflow=hidden;fillColor=#dae8fc;top=0;left=0;bottom=0;right=0;pointerEvents=1;strokeWidth=2;" parent="KdqZW1nxa3IcIuYSCLVA-318" vertex="1" visible="0">
          <mxGeometry x="270" width="37" height="28" as="geometry">
            <mxRectangle width="37" height="28" as="alternateBounds" />
          </mxGeometry>
        </mxCell>
        <mxCell id="KdqZW1nxa3IcIuYSCLVA-324" value="" style="shape=partialRectangle;html=1;whiteSpace=wrap;connectable=0;strokeColor=#6c8ebf;overflow=hidden;fillColor=#dae8fc;top=0;left=0;bottom=0;right=0;pointerEvents=1;strokeWidth=2;" parent="KdqZW1nxa3IcIuYSCLVA-318" vertex="1" visible="0">
          <mxGeometry x="307" width="46" height="28" as="geometry">
            <mxRectangle width="46" height="28" as="alternateBounds" />
          </mxGeometry>
        </mxCell>
        <mxCell id="KdqZW1nxa3IcIuYSCLVA-325" value="LVM Volume Group" style="shape=partialRectangle;html=1;whiteSpace=wrap;connectable=0;strokeColor=#6c8ebf;overflow=hidden;fillColor=#dae8fc;top=1;left=1;bottom=1;right=1;pointerEvents=1;fontSize=12;colspan=3;strokeWidth=2;container=1;fontFamily=sans-serif;" parent="KdqZW1nxa3IcIuYSCLVA-318" vertex="1">
          <mxGeometry x="353" width="477" height="28" as="geometry">
            <mxRectangle width="37" height="28" as="alternateBounds" />
          </mxGeometry>
        </mxCell>
        <mxCell id="KdqZW1nxa3IcIuYSCLVA-326" value="" style="shape=partialRectangle;html=1;whiteSpace=wrap;connectable=0;strokeColor=inherit;overflow=hidden;fillColor=none;top=0;left=0;bottom=0;right=0;pointerEvents=1;fontSize=12;" parent="KdqZW1nxa3IcIuYSCLVA-318" vertex="1" visible="0">
          <mxGeometry x="390" width="110" height="28" as="geometry">
            <mxRectangle width="110" height="28" as="alternateBounds" />
          </mxGeometry>
        </mxCell>
        <mxCell id="KdqZW1nxa3IcIuYSCLVA-327" value="" style="shape=partialRectangle;html=1;whiteSpace=wrap;connectable=0;strokeColor=inherit;overflow=hidden;fillColor=none;top=0;left=0;bottom=0;right=0;pointerEvents=1;fontSize=12;" parent="KdqZW1nxa3IcIuYSCLVA-318" vertex="1" visible="0">
          <mxGeometry x="500" width="330" height="28" as="geometry">
            <mxRectangle width="330" height="28" as="alternateBounds" />
          </mxGeometry>
        </mxCell>
        <mxCell id="KdqZW1nxa3IcIuYSCLVA-328" style="shape=tableRow;horizontal=0;startSize=0;swimlaneHead=0;swimlaneBody=0;strokeColor=inherit;top=0;left=0;bottom=0;right=0;collapsible=0;dropTarget=0;fillColor=none;points=[[0,0.5],[1,0.5]];portConstraint=eastwest;fontSize=12;fontFamily=sans-serif;" parent="KdqZW1nxa3IcIuYSCLVA-307" vertex="1">
          <mxGeometry y="83" width="830" height="27" as="geometry" />
        </mxCell>
        <mxCell id="KdqZW1nxa3IcIuYSCLVA-329" style="shape=partialRectangle;html=1;whiteSpace=wrap;connectable=0;strokeColor=inherit;overflow=hidden;fillColor=none;top=0;left=0;bottom=0;right=0;pointerEvents=1;" parent="KdqZW1nxa3IcIuYSCLVA-328" vertex="1" visible="0">
          <mxGeometry width="34" height="27" as="geometry">
            <mxRectangle width="34" height="27" as="alternateBounds" />
          </mxGeometry>
        </mxCell>
        <mxCell id="KdqZW1nxa3IcIuYSCLVA-330" style="shape=partialRectangle;html=1;whiteSpace=wrap;connectable=0;strokeColor=inherit;overflow=hidden;fillColor=none;top=0;left=0;bottom=0;right=0;pointerEvents=1;" parent="KdqZW1nxa3IcIuYSCLVA-328" vertex="1" visible="0">
          <mxGeometry x="34" width="33" height="27" as="geometry">
            <mxRectangle width="33" height="27" as="alternateBounds" />
          </mxGeometry>
        </mxCell>
        <mxCell id="KdqZW1nxa3IcIuYSCLVA-331" style="shape=partialRectangle;html=1;whiteSpace=wrap;connectable=0;strokeColor=inherit;overflow=hidden;fillColor=none;top=0;left=0;bottom=0;right=0;pointerEvents=1;" parent="KdqZW1nxa3IcIuYSCLVA-328" vertex="1" visible="0">
          <mxGeometry x="67" width="163" height="27" as="geometry">
            <mxRectangle width="163" height="27" as="alternateBounds" />
          </mxGeometry>
        </mxCell>
        <mxCell id="KdqZW1nxa3IcIuYSCLVA-332" style="shape=partialRectangle;html=1;whiteSpace=wrap;connectable=0;strokeColor=inherit;overflow=hidden;fillColor=none;top=0;left=0;bottom=0;right=0;pointerEvents=1;" parent="KdqZW1nxa3IcIuYSCLVA-328" vertex="1" visible="0">
          <mxGeometry x="230" width="40" height="27" as="geometry">
            <mxRectangle width="40" height="27" as="alternateBounds" />
          </mxGeometry>
        </mxCell>
        <mxCell id="KdqZW1nxa3IcIuYSCLVA-333" style="shape=partialRectangle;html=1;whiteSpace=wrap;connectable=0;strokeColor=#6c8ebf;overflow=hidden;fillColor=#dae8fc;top=0;left=0;bottom=0;right=0;pointerEvents=1;strokeWidth=2;" parent="KdqZW1nxa3IcIuYSCLVA-328" vertex="1" visible="0">
          <mxGeometry x="270" width="37" height="27" as="geometry">
            <mxRectangle width="37" height="27" as="alternateBounds" />
          </mxGeometry>
        </mxCell>
        <mxCell id="KdqZW1nxa3IcIuYSCLVA-334" style="shape=partialRectangle;html=1;whiteSpace=wrap;connectable=0;strokeColor=#6c8ebf;overflow=hidden;fillColor=#dae8fc;top=0;left=0;bottom=0;right=0;pointerEvents=1;strokeWidth=2;" parent="KdqZW1nxa3IcIuYSCLVA-328" vertex="1" visible="0">
          <mxGeometry x="307" width="46" height="27" as="geometry">
            <mxRectangle width="46" height="27" as="alternateBounds" />
          </mxGeometry>
        </mxCell>
        <mxCell id="KdqZW1nxa3IcIuYSCLVA-335" value="LUKS2 Encrypted Partition" style="shape=partialRectangle;html=1;whiteSpace=wrap;connectable=0;strokeColor=#6c8ebf;overflow=hidden;fillColor=#dae8fc;top=1;left=1;bottom=1;right=1;pointerEvents=1;fontSize=12;colspan=3;strokeWidth=2;container=1;fontFamily=sans-serif;" parent="KdqZW1nxa3IcIuYSCLVA-328" vertex="1">
          <mxGeometry x="353" width="477" height="27" as="geometry">
            <mxRectangle width="37" height="27" as="alternateBounds" />
          </mxGeometry>
        </mxCell>
        <mxCell id="KdqZW1nxa3IcIuYSCLVA-339" value="" style="sketch=0;aspect=fixed;pointerEvents=1;shadow=0;dashed=0;html=1;strokeColor=#d6b656;labelPosition=center;verticalLabelPosition=bottom;verticalAlign=top;align=center;fillColor=#fff2cc;shape=mxgraph.mscae.enterprise.lock;fontFamily=sans-serif;" parent="KdqZW1nxa3IcIuYSCLVA-335" vertex="1">
          <mxGeometry x="4" y="7" width="12.48" height="16" as="geometry" />
        </mxCell>
        <mxCell id="As9Zzw6g2zfpyAjeWfE_-1" value="LUKS2" style="rounded=0;whiteSpace=wrap;html=1;align=left;strokeColor=none;fillColor=none;fontColor=#CCAD52;fontSize=10;fontFamily=sans-serif;" vertex="1" parent="KdqZW1nxa3IcIuYSCLVA-335">
          <mxGeometry x="18.48" y="11.5" width="31.52" height="13" as="geometry" />
        </mxCell>
        <mxCell id="KdqZW1nxa3IcIuYSCLVA-336" style="shape=partialRectangle;html=1;whiteSpace=wrap;connectable=0;strokeColor=inherit;overflow=hidden;fillColor=none;top=0;left=0;bottom=0;right=0;pointerEvents=1;fontSize=12;" parent="KdqZW1nxa3IcIuYSCLVA-328" vertex="1" visible="0">
          <mxGeometry x="390" width="110" height="27" as="geometry">
            <mxRectangle width="110" height="27" as="alternateBounds" />
          </mxGeometry>
        </mxCell>
        <mxCell id="KdqZW1nxa3IcIuYSCLVA-337" style="shape=partialRectangle;html=1;whiteSpace=wrap;connectable=0;strokeColor=inherit;overflow=hidden;fillColor=none;top=0;left=0;bottom=0;right=0;pointerEvents=1;fontSize=12;" parent="KdqZW1nxa3IcIuYSCLVA-328" vertex="1" visible="0">
          <mxGeometry x="500" width="330" height="27" as="geometry">
            <mxRectangle width="330" height="27" as="alternateBounds" />
          </mxGeometry>
        </mxCell>
        <mxCell id="As9Zzw6g2zfpyAjeWfE_-2" value="&amp;nbsp;EFI Partition (&lt;font style=&quot;font-size: 11px;&quot; face=&quot;monospace&quot;&gt;/dev/&amp;lt;your-disk&amp;gt;&amp;lt;efi&amp;gt;&lt;/font&gt;)" style="rounded=0;whiteSpace=wrap;html=1;strokeColor=#828282;fillColor=#E8E8E8;fontColor=#333333;fontFamily=sans-serif;fontSize=11;align=left;" vertex="1" parent="KdqZW1nxa3IcIuYSCLVA-135">
          <mxGeometry x="430" y="910" width="250" height="20" as="geometry" />
        </mxCell>
        <mxCell id="As9Zzw6g2zfpyAjeWfE_-3" value="&amp;nbsp;Boot Partition (&lt;font style=&quot;font-size: 11px;&quot; face=&quot;monospace&quot;&gt;/dev/&amp;lt;your-disk&amp;gt;&amp;lt;boot&amp;gt;&lt;/font&gt;)" style="rounded=0;whiteSpace=wrap;html=1;strokeColor=#828282;fillColor=#E8E8E8;fontColor=#333333;fontFamily=sans-serif;fontSize=11;align=left;" vertex="1" parent="KdqZW1nxa3IcIuYSCLVA-135">
          <mxGeometry x="430" y="880" width="250" height="20" as="geometry" />
        </mxCell>
        <mxCell id="As9Zzw6g2zfpyAjeWfE_-4" value="&amp;nbsp;LUKS Partition (&lt;font face=&quot;monospace&quot; style=&quot;font-size: 11px;&quot;&gt;/dev/&amp;lt;your-disk&amp;gt;&amp;lt;luks&amp;gt;&lt;/font&gt;)" style="rounded=0;whiteSpace=wrap;html=1;strokeColor=#828282;fillColor=#E8E8E8;fontColor=#333333;fontFamily=sans-serif;fontSize=11;align=left;" vertex="1" parent="KdqZW1nxa3IcIuYSCLVA-135">
          <mxGeometry x="430" y="850" width="250" height="20" as="geometry" />
        </mxCell>
        <mxCell id="As9Zzw6g2zfpyAjeWfE_-5" value="" style="endArrow=classic;html=1;rounded=0;entryX=0;entryY=0.5;entryDx=0;entryDy=0;fontFamily=sans-serif;shadow=0;strokeColor=#828282;" edge="1" parent="KdqZW1nxa3IcIuYSCLVA-135" target="As9Zzw6g2zfpyAjeWfE_-2">
          <mxGeometry width="50" height="50" relative="1" as="geometry">
            <mxPoint x="290" y="780" as="sourcePoint" />
            <mxPoint x="450" y="700" as="targetPoint" />
            <Array as="points">
              <mxPoint x="290" y="920" />
            </Array>
          </mxGeometry>
        </mxCell>
        <mxCell id="As9Zzw6g2zfpyAjeWfE_-6" value="" style="endArrow=classic;html=1;rounded=0;entryX=0;entryY=0.5;entryDx=0;entryDy=0;exitX=0.386;exitY=1.818;exitDx=0;exitDy=0;exitPerimeter=0;fontFamily=sans-serif;shadow=0;strokeColor=#828282;" edge="1" parent="KdqZW1nxa3IcIuYSCLVA-135" source="KdqZW1nxa3IcIuYSCLVA-308" target="As9Zzw6g2zfpyAjeWfE_-3">
          <mxGeometry width="50" height="50" relative="1" as="geometry">
            <mxPoint x="310" y="790" as="sourcePoint" />
            <mxPoint x="216" y="877" as="targetPoint" />
            <Array as="points">
              <mxPoint x="330" y="890" />
            </Array>
          </mxGeometry>
        </mxCell>
        <mxCell id="As9Zzw6g2zfpyAjeWfE_-7" value="" style="endArrow=classic;html=1;rounded=0;entryX=0;entryY=0.5;entryDx=0;entryDy=0;exitX=0.482;exitY=0.63;exitDx=0;exitDy=0;exitPerimeter=0;fontFamily=sans-serif;shadow=0;strokeColor=#828282;" edge="1" parent="KdqZW1nxa3IcIuYSCLVA-135" source="KdqZW1nxa3IcIuYSCLVA-328" target="As9Zzw6g2zfpyAjeWfE_-4">
          <mxGeometry width="50" height="50" relative="1" as="geometry">
            <mxPoint x="425" y="810" as="sourcePoint" />
            <mxPoint x="390" y="880" as="targetPoint" />
            <Array as="points">
              <mxPoint x="410" y="860" />
            </Array>
          </mxGeometry>
        </mxCell>
        <mxCell id="As9Zzw6g2zfpyAjeWfE_-9" value="&lt;font face=&quot;monospace&quot;&gt;/dev/&amp;lt;your-disk&amp;gt;&lt;/font&gt;" style="rounded=0;whiteSpace=wrap;html=1;strokeColor=#828282;fillColor=#E8E8E8;fontColor=#333333;fontFamily=sans-serif;align=center;" vertex="1" parent="KdqZW1nxa3IcIuYSCLVA-135">
          <mxGeometry x="9" y="655" width="151" height="20" as="geometry" />
        </mxCell>
        <mxCell id="As9Zzw6g2zfpyAjeWfE_-13" style="edgeStyle=orthogonalEdgeStyle;rounded=0;orthogonalLoop=1;jettySize=auto;html=1;exitX=0.1;exitY=0.5;exitDx=0;exitDy=0;exitPerimeter=0;entryX=0.5;entryY=0;entryDx=0;entryDy=0;fontFamily=sans-serif;shadow=0;strokeColor=#828282;" edge="1" parent="KdqZW1nxa3IcIuYSCLVA-135" source="As9Zzw6g2zfpyAjeWfE_-10" target="As9Zzw6g2zfpyAjeWfE_-11">
          <mxGeometry relative="1" as="geometry" />
        </mxCell>
        <mxCell id="As9Zzw6g2zfpyAjeWfE_-10" value="" style="shape=curlyBracket;whiteSpace=wrap;html=1;rounded=1;flipH=1;labelPosition=right;verticalLabelPosition=middle;align=left;verticalAlign=middle;rotation=90;fontFamily=sans-serif;shadow=0;strokeColor=#828282;" vertex="1" parent="KdqZW1nxa3IcIuYSCLVA-135">
          <mxGeometry x="134" y="675" width="20" height="270" as="geometry" />
        </mxCell>
        <mxCell id="As9Zzw6g2zfpyAjeWfE_-11" value="&lt;font style=&quot;font-size: 11px;&quot;&gt;These partitions are automatically created when you install windows. (Optional)&lt;/font&gt;" style="rounded=0;whiteSpace=wrap;html=1;strokeColor=#828282;fillColor=#E8E8E8;fontColor=#333333;fontFamily=sans-serif;" vertex="1" parent="KdqZW1nxa3IcIuYSCLVA-135">
          <mxGeometry x="16" y="880" width="256" height="40" as="geometry" />
        </mxCell>
      </root>
    </mxGraphModel>
  </diagram>
</mxfile>
